# xmcd
#
# Track frame offsets:
#	150
#	17108
#	33068
#	50344
#	62721
#	81561
#	99491
#	117502
#	134984
#	145578
#
# Disc length: 2138 seconds
# Revision: 1
# Processed by: cddbd v1.5.2PL0 Copyright (c) Steve Scherf et al.
# Submitted via: dBpowerAMP V12.0
#
DISCID=8c08580a
DTITLE=Hanne Sørvaag - All is Forgiven
DYEAR=2012
DGENRE=Country
TTITLE0=Days That End With Y
TTITLE1=One of Everything
TTITLE2=Always on the Run
TTITLE3=Should Have Been Easy
TTITLE4=Back to Missing You
TTITLE5=Love is Never a Mistake
TTITLE6=Something About a Song
TTITLE7=Bad Advice
TTITLE8=I Hope I Dream
TTITLE9=All is Forgiven
EXTD=
EXTT0=
EXTT1=
EXTT2=
EXTT3=
EXTT4=
EXTT5=
EXTT6=
EXTT7=
EXTT8=
EXTT9=
PLAYORDER=
